<?xml version="1.0" encoding="UTF-8" standalone="no"?>
<!DOCTYPE svg PUBLIC "-//W3C//DTD SVG 1.1//EN"
 "http://www.w3.org/Graphics/SVG/1.1/DTD/svg11.dtd">
<!-- Generated by graphviz version 9.0.0 (0)
 -->
<!-- Pages: 1 -->
<svg width="813pt" height="292pt"
 viewBox="0.00 0.00 813.25 292.00" xmlns="http://www.w3.org/2000/svg" xmlns:xlink="http://www.w3.org/1999/xlink">
<g id="graph0" class="graph" transform="scale(1 1) rotate(0) translate(4 288)">
<polygon fill="#ffffff" stroke="none" points="-4,4 -4,-288 809.25,-288 809.25,4 -4,4"/>
<!-- X1 -->
<g id="node1" class="node">
<title>X1</title>
<polygon fill="#ffffff" stroke="black" points="134.25,-253 0,-253 0,0 134.25,0 134.25,-253"/>
<polygon fill="none" stroke="black" points="0,-230 0,-253 134.25,-253 134.25,-230 0,-230"/>
<text text-anchor="start" x="58.88" y="-235.7" font-family="arial" font-size="14.00">X1</text>
<polygon fill="none" stroke="black" points="0,-207 0,-230 47,-230 47,-207 0,-207"/>
<text text-anchor="start" x="4" y="-212.7" font-family="arial" font-size="14.00">D&#45;Sub</text>
<polygon fill="none" stroke="black" points="47,-207 47,-230 96.25,-230 96.25,-207 47,-207"/>
<text text-anchor="start" x="51" y="-212.7" font-family="arial" font-size="14.00">female</text>
<polygon fill="none" stroke="black" points="96.25,-207 96.25,-230 134.25,-230 134.25,-207 96.25,-207"/>
<text text-anchor="start" x="100.25" y="-212.7" font-family="arial" font-size="14.00">9&#45;pin</text>
<polygon fill="none" stroke="black" points="0,-184 0,-207 78.62,-207 78.62,-184 0,-184"/>
<text text-anchor="start" x="24.69" y="-189.7" font-family="arial" font-size="14.00">DCD</text>
<polygon fill="none" stroke="black" points="78.62,-184 78.62,-207 134.25,-207 134.25,-184 78.62,-184"/>
<text text-anchor="start" x="102.69" y="-189.7" font-family="arial" font-size="14.00">1</text>
<polygon fill="none" stroke="black" points="0,-161 0,-184 78.62,-184 78.62,-161 0,-161"/>
<text text-anchor="start" x="29.56" y="-166.7" font-family="arial" font-size="14.00">RX</text>
<polygon fill="none" stroke="black" points="78.62,-161 78.62,-184 134.25,-184 134.25,-161 78.62,-161"/>
<text text-anchor="start" x="102.69" y="-166.7" font-family="arial" font-size="14.00">2</text>
<polygon fill="none" stroke="black" points="0,-138 0,-161 78.62,-161 78.62,-138 0,-138"/>
<text text-anchor="start" x="30.31" y="-143.7" font-family="arial" font-size="14.00">TX</text>
<polygon fill="none" stroke="black" points="78.62,-138 78.62,-161 134.25,-161 134.25,-138 78.62,-138"/>
<text text-anchor="start" x="102.69" y="-143.7" font-family="arial" font-size="14.00">3</text>
<polygon fill="none" stroke="black" points="0,-115 0,-138 78.62,-138 78.62,-115 0,-115"/>
<text text-anchor="start" x="25.44" y="-120.7" font-family="arial" font-size="14.00">DTR</text>
<polygon fill="none" stroke="black" points="78.62,-115 78.62,-138 134.25,-138 134.25,-115 78.62,-115"/>
<text text-anchor="start" x="102.69" y="-120.7" font-family="arial" font-size="14.00">4</text>
<polygon fill="none" stroke="black" points="0,-92 0,-115 78.62,-115 78.62,-92 0,-92"/>
<text text-anchor="start" x="23.94" y="-97.7" font-family="arial" font-size="14.00">GND</text>
<polygon fill="none" stroke="black" points="78.62,-92 78.62,-115 134.25,-115 134.25,-92 78.62,-92"/>
<text text-anchor="start" x="102.69" y="-97.7" font-family="arial" font-size="14.00">5</text>
<polygon fill="none" stroke="black" points="0,-69 0,-92 78.62,-92 78.62,-69 0,-69"/>
<text text-anchor="start" x="25.06" y="-74.7" font-family="arial" font-size="14.00">DSR</text>
<polygon fill="none" stroke="black" points="78.62,-69 78.62,-92 134.25,-92 134.25,-69 78.62,-69"/>
<text text-anchor="start" x="102.69" y="-74.7" font-family="arial" font-size="14.00">6</text>
<polygon fill="none" stroke="black" points="0,-46 0,-69 78.62,-69 78.62,-46 0,-46"/>
<text text-anchor="start" x="25.81" y="-51.7" font-family="arial" font-size="14.00">RTS</text>
<polygon fill="none" stroke="black" points="78.62,-46 78.62,-69 134.25,-69 134.25,-46 78.62,-46"/>
<text text-anchor="start" x="102.69" y="-51.7" font-family="arial" font-size="14.00">7</text>
<polygon fill="none" stroke="black" points="0,-23 0,-46 78.62,-46 78.62,-23 0,-23"/>
<text text-anchor="start" x="25.81" y="-28.7" font-family="arial" font-size="14.00">CTS</text>
<polygon fill="none" stroke="black" points="78.62,-23 78.62,-46 134.25,-46 134.25,-23 78.62,-23"/>
<text text-anchor="start" x="102.69" y="-28.7" font-family="arial" font-size="14.00">8</text>
<polygon fill="none" stroke="black" points="0,0 0,-23 78.62,-23 78.62,0 0,0"/>
<text text-anchor="start" x="32.56" y="-5.7" font-family="arial" font-size="14.00">RI</text>
<polygon fill="none" stroke="black" points="78.62,0 78.62,-23 134.25,-23 134.25,0 78.62,0"/>
<text text-anchor="start" x="102.69" y="-5.7" font-family="arial" font-size="14.00">9</text>
</g>
<!-- W1 -->
<g id="node3" class="node">
<title>W1</title>
<polygon fill="#ffffff" stroke="black" points="481.25,-284 278.25,-284 278.25,-85 481.25,-85 481.25,-284"/>
<polygon fill="none" stroke="black" points="278.25,-261 278.25,-284 481.25,-284 481.25,-261 278.25,-261"/>
<text text-anchor="start" x="369.25" y="-266.7" font-family="arial" font-size="14.00">W1</text>
<polygon fill="none" stroke="black" points="278.25,-238 278.25,-261 311.19,-261 311.19,-238 278.25,-238"/>
<text text-anchor="start" x="287.59" y="-243.7" font-family="arial" font-size="14.00">3x</text>
<polygon fill="none" stroke="black" points="311.19,-238 311.19,-261 388.38,-261 388.38,-238 311.19,-238"/>
<text text-anchor="start" x="320.53" y="-243.7" font-family="arial" font-size="14.00">0.25 mm²</text>
<polygon fill="none" stroke="black" points="388.38,-238 388.38,-261 428.06,-261 428.06,-238 388.38,-238"/>
<text text-anchor="start" x="397.72" y="-243.7" font-family="arial" font-size="14.00">+ S</text>
<polygon fill="none" stroke="black" points="428.06,-238 428.06,-261 481.25,-261 481.25,-238 428.06,-238"/>
<text text-anchor="start" x="437.41" y="-243.7" font-family="arial" font-size="14.00">0.2 m</text>
<text text-anchor="start" x="309.38" y="-222.7" font-family="arial" font-size="14.00"> </text>
<text text-anchor="start" x="280.12" y="-203.7" font-family="arial" font-size="14.00">X1:5:GND</text>
<text text-anchor="start" x="346" y="-203.7" font-family="arial" font-size="14.00"> &#160;&#160;&#160;&#160;1:WH &#160;&#160;&#160;</text>
<text text-anchor="start" x="417.12" y="-203.7" font-family="arial" font-size="14.00">X2:1:GND</text>
<polygon fill="#000000" stroke="none" points="278.25,-198 278.25,-200 481.25,-200 481.25,-198 278.25,-198"/>
<polygon fill="#ffffff" stroke="none" points="278.25,-196 278.25,-198 481.25,-198 481.25,-196 278.25,-196"/>
<polygon fill="#000000" stroke="none" points="278.25,-194 278.25,-196 481.25,-196 481.25,-194 278.25,-194"/>
<text text-anchor="start" x="285.75" y="-178.7" font-family="arial" font-size="14.00">X1:2:RX</text>
<text text-anchor="start" x="347.88" y="-178.7" font-family="arial" font-size="14.00"> &#160;&#160;&#160;&#160;2:BN &#160;&#160;&#160;</text>
<text text-anchor="start" x="423.5" y="-178.7" font-family="arial" font-size="14.00">X2:3:TX</text>
<polygon fill="#000000" stroke="none" points="278.25,-173 278.25,-175 481.25,-175 481.25,-173 278.25,-173"/>
<polygon fill="#895956" stroke="none" points="278.25,-171 278.25,-173 481.25,-173 481.25,-171 278.25,-171"/>
<polygon fill="#000000" stroke="none" points="278.25,-169 278.25,-171 481.25,-171 481.25,-169 278.25,-169"/>
<text text-anchor="start" x="286.5" y="-153.7" font-family="arial" font-size="14.00">X1:3:TX</text>
<text text-anchor="start" x="346.75" y="-153.7" font-family="arial" font-size="14.00"> &#160;&#160;&#160;&#160;3:GN &#160;&#160;&#160;</text>
<text text-anchor="start" x="422.75" y="-153.7" font-family="arial" font-size="14.00">X2:2:RX</text>
<polygon fill="#000000" stroke="none" points="278.25,-148 278.25,-150 481.25,-150 481.25,-148 278.25,-148"/>
<polygon fill="#00ff00" stroke="none" points="278.25,-146 278.25,-148 481.25,-148 481.25,-146 278.25,-146"/>
<polygon fill="#000000" stroke="none" points="278.25,-144 278.25,-146 481.25,-146 481.25,-144 278.25,-144"/>
<text text-anchor="start" x="309.38" y="-128.7" font-family="arial" font-size="14.00"> </text>
<text text-anchor="start" x="280.12" y="-109.7" font-family="arial" font-size="14.00">X1:5:GND</text>
<text text-anchor="start" x="361" y="-109.7" font-family="arial" font-size="14.00">Shield</text>
<polygon fill="#000000" stroke="none" points="278.25,-104 278.25,-106 481.25,-106 481.25,-104 278.25,-104"/>
<text text-anchor="start" x="309.38" y="-88.7" font-family="arial" font-size="14.00"> </text>
</g>
<!-- X1&#45;&#45;W1 -->
<g id="edge1" class="edge">
<title>X1:e&#45;&#45;W1:w</title>
<path fill="none" stroke="#000000" stroke-width="2" d="M134.25,-101.5C212.67,-103.69 203.81,-197.69 278.25,-195.5"/>
<path fill="none" stroke="#ffffff" stroke-width="2" d="M134.25,-103.5C210.68,-103.5 201.82,-197.5 278.25,-197.5"/>
<path fill="none" stroke="#000000" stroke-width="2" d="M134.25,-105.5C208.69,-103.31 199.83,-197.31 278.25,-199.5"/>
</g>
<!-- X1&#45;&#45;W1 -->
<g id="edge3" class="edge">
<title>X1:e&#45;&#45;W1:w</title>
<path fill="none" stroke="#000000" stroke-width="2" d="M134.25,-170.5C198.13,-170.5 214.12,-169.5 278.25,-169.5"/>
<path fill="none" stroke="#895956" stroke-width="2" d="M134.25,-172.5C198.25,-172.5 214.25,-171.5 278.25,-171.5"/>
<path fill="none" stroke="#000000" stroke-width="2" d="M134.25,-174.5C198.38,-174.5 214.37,-173.5 278.25,-173.5"/>
</g>
<!-- X1&#45;&#45;W1 -->
<g id="edge5" class="edge">
<title>X1:e&#45;&#45;W1:w</title>
<path fill="none" stroke="#000000" stroke-width="2" d="M134.25,-147.5C197.89,-147.53 213.87,-144.53 278.25,-144.5"/>
<path fill="none" stroke="#00ff00" stroke-width="2" d="M134.25,-149.5C198.26,-149.5 214.24,-146.5 278.25,-146.5"/>
<path fill="none" stroke="#000000" stroke-width="2" d="M134.25,-151.5C198.63,-151.47 214.61,-148.47 278.25,-148.5"/>
</g>
<!-- X1&#45;&#45;W1 -->
<g id="edge7" class="edge">
<title>X1:e&#45;&#45;W1:w</title>
<path fill="none" stroke="#000000" stroke-width="2" d="M134.25,-103.5C198.25,-103.5 214.25,-104.5 278.25,-104.5"/>
</g>
<!-- X2 -->
<g id="node2" class="node">
<title>X2</title>
<polygon fill="#ffffff" stroke="black" points="805.25,-255 625.25,-255 625.25,-140 805.25,-140 805.25,-255"/>
<polygon fill="none" stroke="black" points="625.25,-232 625.25,-255 805.25,-255 805.25,-232 625.25,-232"/>
<text text-anchor="start" x="707" y="-237.7" font-family="arial" font-size="14.00">X2</text>
<polygon fill="none" stroke="black" points="625.25,-209 625.25,-232 718,-232 718,-209 625.25,-209"/>
<text text-anchor="start" x="629.25" y="-214.7" font-family="arial" font-size="14.00">Molex KK 254</text>
<polygon fill="none" stroke="black" points="718,-209 718,-232 767.25,-232 767.25,-209 718,-209"/>
<text text-anchor="start" x="722" y="-214.7" font-family="arial" font-size="14.00">female</text>
<polygon fill="none" stroke="black" points="767.25,-209 767.25,-232 805.25,-232 805.25,-209 767.25,-209"/>
<text text-anchor="start" x="771.25" y="-214.7" font-family="arial" font-size="14.00">3&#45;pin</text>
<polygon fill="none" stroke="black" points="625.25,-186 625.25,-209 703.75,-209 703.75,-186 625.25,-186"/>
<text text-anchor="start" x="660.75" y="-191.7" font-family="arial" font-size="14.00">1</text>
<polygon fill="none" stroke="black" points="703.75,-186 703.75,-209 805.25,-209 805.25,-186 703.75,-186"/>
<text text-anchor="start" x="739.12" y="-191.7" font-family="arial" font-size="14.00">GND</text>
<polygon fill="none" stroke="black" points="625.25,-163 625.25,-186 703.75,-186 703.75,-163 625.25,-163"/>
<text text-anchor="start" x="660.75" y="-168.7" font-family="arial" font-size="14.00">2</text>
<polygon fill="none" stroke="black" points="703.75,-163 703.75,-186 805.25,-186 805.25,-163 703.75,-163"/>
<text text-anchor="start" x="744.75" y="-168.7" font-family="arial" font-size="14.00">RX</text>
<polygon fill="none" stroke="black" points="625.25,-140 625.25,-163 703.75,-163 703.75,-140 625.25,-140"/>
<text text-anchor="start" x="660.75" y="-145.7" font-family="arial" font-size="14.00">3</text>
<polygon fill="none" stroke="black" points="703.75,-140 703.75,-163 805.25,-163 805.25,-140 703.75,-140"/>
<text text-anchor="start" x="745.5" y="-145.7" font-family="arial" font-size="14.00">TX</text>
</g>
<!-- W1&#45;&#45;X2 -->
<g id="edge2" class="edge">
<title>W1:e&#45;&#45;X2:w</title>
<path fill="none" stroke="#000000" stroke-width="2" d="M481.25,-195.5C545.25,-195.5 561.25,-195.5 625.25,-195.5"/>
<path fill="none" stroke="#ffffff" stroke-width="2" d="M481.25,-197.5C545.25,-197.5 561.25,-197.5 625.25,-197.5"/>
<path fill="none" stroke="#000000" stroke-width="2" d="M481.25,-199.5C545.25,-199.5 561.25,-199.5 625.25,-199.5"/>
</g>
<!-- W1&#45;&#45;X2 -->
<g id="edge4" class="edge">
<title>W1:e&#45;&#45;X2:w</title>
<path fill="none" stroke="#000000" stroke-width="2" d="M481.25,-169.5C544.26,-170.31 559.03,-150.31 625.25,-149.5"/>
<path fill="none" stroke="#895956" stroke-width="2" d="M481.25,-171.5C545.86,-171.5 560.64,-151.5 625.25,-151.5"/>
<path fill="none" stroke="#000000" stroke-width="2" d="M481.25,-173.5C547.47,-172.69 562.24,-152.69 625.25,-153.5"/>
</g>
<!-- W1&#45;&#45;X2 -->
<g id="edge6" class="edge">
<title>W1:e&#45;&#45;X2:w</title>
<path fill="none" stroke="#000000" stroke-width="2" d="M481.25,-144.5C548.25,-145.63 561.85,-173.63 625.25,-172.5"/>
<path fill="none" stroke="#00ff00" stroke-width="2" d="M481.25,-146.5C546.45,-146.5 560.05,-174.5 625.25,-174.5"/>
<path fill="none" stroke="#000000" stroke-width="2" d="M481.25,-148.5C544.65,-147.37 558.25,-175.37 625.25,-176.5"/>
</g>
</g>
</svg>
